<svg xmlns="http://www.w3.org/2000/svg" viewBox="0 0 100 100" width="400px" height="400px"><path fill="#a1d3a2" d="M17 45H83V55H17zM17 68H83V78H17zM17 22H83V32H17z"/><path fill="#1f212b" d="M83 56H17c-.552 0-1-.448-1-1V45c0-.552.448-1 1-1h66c.552 0 1 .448 1 1v10C84 55.552 83.552 56 83 56zM18 54h64v-8H18V54zM83 79H17c-.552 0-1-.448-1-1V68c0-.552.448-1 1-1h66c.552 0 1 .448 1 1v10C84 78.552 83.552 79 83 79zM18 77h64v-8H18V77zM83 33H17c-.552 0-1-.448-1-1V22c0-.552.448-1 1-1h66c.552 0 1 .448 1 1v10C84 32.552 83.552 33 83 33zM18 31h64v-8H18V31z"/><path fill="#1f212b" d="M73.5 29H17c-.276 0-.5-.224-.5-.5S16.724 28 17 28h56.5c.276 0 .5.224.5.5S73.776 29 73.5 29zM78.5 29h-2c-.276 0-.5-.224-.5-.5s.224-.5.5-.5h2c.276 0 .5.224.5.5S78.776 29 78.5 29zM82.5 75h-56c-.276 0-.5-.224-.5-.5s.224-.5.5-.5h56c.276 0 .5.224.5.5S82.776 75 82.5 75zM23.5 75h-2c-.276 0-.5-.224-.5-.5s.224-.5.5-.5h2c.276 0 .5.224.5.5S23.776 75 23.5 75zM67.5 52h-45c-.276 0-.5-.224-.5-.5s.224-.5.5-.5h45c.276 0 .5.224.5.5S67.776 52 67.5 52zM78.5 52h-2c-.276 0-.5-.224-.5-.5s.224-.5.5-.5h2c.276 0 .5.224.5.5S78.776 52 78.5 52zM73.5 52h-3c-.276 0-.5-.224-.5-.5s.224-.5.5-.5h3c.276 0 .5.224.5.5S73.776 52 73.5 52z"/></svg>